<?xml version="1.0" encoding="utf-8"?>
<!-- Generator: Adobe Illustrator 16.0.0, SVG Export Plug-In . SVG Version: 6.00 Build 0)  -->
<!DOCTYPE svg PUBLIC "-//W3C//DTD SVG 1.1//EN" "http://www.w3.org/Graphics/SVG/1.1/DTD/svg11.dtd">
<svg version="1.1" id="Layer_1" xmlns="http://www.w3.org/2000/svg" xmlns:xlink="http://www.w3.org/1999/xlink" x="0px" y="0px"
	 width="20px" height="21.001px" viewBox="2 1 20 21.001" enable-background="new 2 1 20 21.001" xml:space="preserve">
<path fill="#626262" d="M11,5H8l4-4l4,4h-3v4.43c-0.75,0.46-1.42,1.03-2,1.69V5 M22,11l-4-4v3c-3.609-0.15-6.69,2.57-7,6.17
	c-1.56,0.55-2.38,2.27-1.83,3.83c0.55,1.561,2.27,2.38,3.83,1.83c1.561-0.561,2.38-2.27,1.83-3.83c-0.301-0.859-0.98-1.53-1.83-1.83
	c0.471-4,4.471-4.2,4.95-4.2v3L22,11 M10.63,11.59C9.3,10.57,7.67,10,6,10V7l-4,4l4,4v-3c1.34,0.03,2.63,0.5,3.64,1.4
	C9.89,12.76,10.22,12.15,10.63,11.59z"/>
</svg>
