<?xml version="1.0" encoding="utf-8"?>
<!-- Generator: Adobe Illustrator 16.0.0, SVG Export Plug-In . SVG Version: 6.00 Build 0)  -->
<!DOCTYPE svg PUBLIC "-//W3C//DTD SVG 1.1//EN" "http://www.w3.org/Graphics/SVG/1.1/DTD/svg11.dtd">
<svg version="1.1" id="Layer_1" xmlns="http://www.w3.org/2000/svg" xmlns:xlink="http://www.w3.org/1999/xlink" x="0px" y="0px"
	 width="12px" height="12px" viewBox="0 0 12 12" enable-background="new 0 0 12 12" xml:space="preserve">
<path fill="#626262" d="M10,5.5h1.5v1H10V5.5z M0.5,5.5H2v1H0.5V5.5z M6.496,0.5V2h-1V0.5H6.496z M2.462,1.758l1.061,1.061
	L2.816,3.525L1.755,2.465L2.462,1.758L2.462,1.758z M8.477,2.816l1.061-1.06l0.707,0.707L9.184,3.523L8.477,2.816z M6,3
	c1.656,0,3,1.342,3.001,2.999c0,1.073-0.572,2.063-1.501,2.6V9.5C7.5,9.776,7.276,10,7,10H5c-0.276,0-0.5-0.224-0.5-0.5V8.599
	C3.065,7.771,2.573,5.936,3.401,4.501C3.937,3.572,4.928,3,6,3z M7,10.5V11c0,0.276-0.224,0.5-0.5,0.5h-1C5.224,11.5,5,11.276,5,11
	v-0.5H7z M5.5,9h1V7.938c1.069-0.279,1.709-1.373,1.43-2.442C7.701,4.617,6.908,4.002,6,4C4.896,3.999,3.999,4.894,3.998,5.998
	C3.997,6.912,4.615,7.709,5.5,7.938V9z"/>
</svg>
