<?xml version="1.0" encoding="utf-8"?>
<!-- Generator: Adobe Illustrator 16.0.0, SVG Export Plug-In . SVG Version: 6.00 Build 0)  -->
<!DOCTYPE svg PUBLIC "-//W3C//DTD SVG 1.1//EN" "http://www.w3.org/Graphics/SVG/1.1/DTD/svg11.dtd">
<svg version="1.1" id="Layer_1" xmlns="http://www.w3.org/2000/svg" xmlns:xlink="http://www.w3.org/1999/xlink" x="0px" y="0px"
	 width="12px" height="12px" viewBox="0 0 12 12" enable-background="new 0 0 12 12" xml:space="preserve">
<path fill="#626262" d="M6,8C5.171,8,4.5,7.329,4.499,6.501c0-0.541,0.291-1.04,0.762-1.307l4.843-2.807L7.34,7.176
	C7.084,7.682,6.566,8,6,8z M6,1.5c0.904,0,1.752,0.24,2.483,0.66L7.435,2.765C5.373,1.971,3.058,3,2.265,5.061
	C1.697,6.537,2.052,8.209,3.17,9.327l0.002-0.003c0.196,0.195,0.196,0.512,0.001,0.707c-0.195,0.196-0.512,0.197-0.708,0.002
	l-0.002,0.002C1.525,9.099,0.999,7.826,1,6.5C1,3.738,3.238,1.5,6,1.5z M11,6.5c0.002,1.326-0.525,2.599-1.465,3.535l0,0
	c-0.197,0.193-0.514,0.193-0.708-0.003S8.633,9.52,8.83,9.324l0.001,0.002C9.58,8.576,10.002,7.561,10,6.5
	c0-0.496-0.091-0.987-0.27-1.448l0.604-1.047C10.771,4.764,11.002,5.624,11,6.5z"/>
</svg>
